<mxfile host="app.diagrams.net" agent="Mozilla/5.0 (Macintosh; Intel Mac OS X 10_15_7) AppleWebKit/537.36 (KHTML, like Gecko) Chrome/128.0.0.0 Safari/537.36" version="24.7.12">
  <diagram name="Page-1" id="yc6pehvF2CLMLfL9GZNC">
    <mxGraphModel dx="1783" dy="1722" grid="1" gridSize="10" guides="1" tooltips="1" connect="1" arrows="1" fold="1" page="1" pageScale="1" pageWidth="850" pageHeight="1100" math="0" shadow="0">
      <root>
        <mxCell id="0" />
        <mxCell id="1" parent="0" />
        <mxCell id="QIxN9s75tHoBSEOhxKrL-115" style="edgeStyle=orthogonalEdgeStyle;rounded=0;orthogonalLoop=1;jettySize=auto;html=1;entryX=0.75;entryY=0;entryDx=0;entryDy=0;" edge="1" parent="1" source="QIxN9s75tHoBSEOhxKrL-2" target="QIxN9s75tHoBSEOhxKrL-105">
          <mxGeometry relative="1" as="geometry">
            <mxPoint x="310" y="-70" as="targetPoint" />
          </mxGeometry>
        </mxCell>
        <mxCell id="QIxN9s75tHoBSEOhxKrL-2" value="Actor" style="shape=umlActor;verticalLabelPosition=bottom;verticalAlign=top;html=1;outlineConnect=0;" vertex="1" parent="1">
          <mxGeometry x="340" y="-280" width="90" height="110" as="geometry" />
        </mxCell>
        <mxCell id="QIxN9s75tHoBSEOhxKrL-12" value="Containerize the each application&amp;nbsp;" style="swimlane;whiteSpace=wrap;html=1;" vertex="1" parent="1">
          <mxGeometry x="-580" y="-110" width="1320" height="890" as="geometry" />
        </mxCell>
        <mxCell id="QIxN9s75tHoBSEOhxKrL-47" value="" style="edgeStyle=orthogonalEdgeStyle;rounded=0;orthogonalLoop=1;jettySize=auto;html=1;" edge="1" parent="QIxN9s75tHoBSEOhxKrL-12" source="QIxN9s75tHoBSEOhxKrL-9">
          <mxGeometry relative="1" as="geometry">
            <mxPoint x="482.5" y="700" as="targetPoint" />
          </mxGeometry>
        </mxCell>
        <mxCell id="QIxN9s75tHoBSEOhxKrL-84" style="edgeStyle=orthogonalEdgeStyle;rounded=0;orthogonalLoop=1;jettySize=auto;html=1;entryX=0.5;entryY=1;entryDx=0;entryDy=0;" edge="1" parent="QIxN9s75tHoBSEOhxKrL-12" source="QIxN9s75tHoBSEOhxKrL-9" target="QIxN9s75tHoBSEOhxKrL-6">
          <mxGeometry relative="1" as="geometry" />
        </mxCell>
        <mxCell id="QIxN9s75tHoBSEOhxKrL-87" style="edgeStyle=orthogonalEdgeStyle;rounded=0;orthogonalLoop=1;jettySize=auto;html=1;" edge="1" parent="QIxN9s75tHoBSEOhxKrL-12" source="QIxN9s75tHoBSEOhxKrL-11" target="QIxN9s75tHoBSEOhxKrL-35">
          <mxGeometry relative="1" as="geometry">
            <mxPoint x="640" y="610" as="targetPoint" />
          </mxGeometry>
        </mxCell>
        <mxCell id="QIxN9s75tHoBSEOhxKrL-11" value="Redirect Service&amp;nbsp; &amp;amp; Anaytics mS" style="ellipse;whiteSpace=wrap;html=1;" vertex="1" parent="QIxN9s75tHoBSEOhxKrL-12">
          <mxGeometry x="830" y="350" width="170" height="80" as="geometry" />
        </mxCell>
        <mxCell id="QIxN9s75tHoBSEOhxKrL-88" style="edgeStyle=orthogonalEdgeStyle;rounded=0;orthogonalLoop=1;jettySize=auto;html=1;" edge="1" parent="QIxN9s75tHoBSEOhxKrL-12" source="QIxN9s75tHoBSEOhxKrL-35" target="QIxN9s75tHoBSEOhxKrL-11">
          <mxGeometry relative="1" as="geometry" />
        </mxCell>
        <mxCell id="QIxN9s75tHoBSEOhxKrL-130" style="edgeStyle=orthogonalEdgeStyle;rounded=0;orthogonalLoop=1;jettySize=auto;html=1;entryX=0.5;entryY=1;entryDx=0;entryDy=0;" edge="1" parent="QIxN9s75tHoBSEOhxKrL-12" source="QIxN9s75tHoBSEOhxKrL-35" target="QIxN9s75tHoBSEOhxKrL-23">
          <mxGeometry relative="1" as="geometry">
            <mxPoint x="934" y="960" as="targetPoint" />
          </mxGeometry>
        </mxCell>
        <mxCell id="QIxN9s75tHoBSEOhxKrL-35" value="" style="image;aspect=fixed;html=1;points=[];align=center;fontSize=12;image=img/lib/azure2/databases/Azure_Database_PostgreSQL_Server.svg;" vertex="1" parent="QIxN9s75tHoBSEOhxKrL-12">
          <mxGeometry x="910" y="750" width="48" height="64" as="geometry" />
        </mxCell>
        <mxCell id="QIxN9s75tHoBSEOhxKrL-131" style="edgeStyle=orthogonalEdgeStyle;rounded=0;orthogonalLoop=1;jettySize=auto;html=1;entryX=0.208;entryY=0.156;entryDx=0;entryDy=0;entryPerimeter=0;" edge="1" parent="QIxN9s75tHoBSEOhxKrL-12" source="QIxN9s75tHoBSEOhxKrL-62" target="QIxN9s75tHoBSEOhxKrL-35">
          <mxGeometry relative="1" as="geometry">
            <mxPoint x="800" y="700" as="targetPoint" />
          </mxGeometry>
        </mxCell>
        <mxCell id="QIxN9s75tHoBSEOhxKrL-62" value="Kafka Connect&amp;nbsp;" style="shape=hexagon;perimeter=hexagonPerimeter2;whiteSpace=wrap;html=1;fixedSize=1;" vertex="1" parent="QIxN9s75tHoBSEOhxKrL-12">
          <mxGeometry x="620" y="660" width="120" height="80" as="geometry" />
        </mxCell>
        <mxCell id="QIxN9s75tHoBSEOhxKrL-73" style="edgeStyle=orthogonalEdgeStyle;rounded=0;orthogonalLoop=1;jettySize=auto;html=1;entryX=0.083;entryY=0.45;entryDx=0;entryDy=0;entryPerimeter=0;" edge="1" parent="QIxN9s75tHoBSEOhxKrL-12" target="QIxN9s75tHoBSEOhxKrL-62">
          <mxGeometry relative="1" as="geometry">
            <mxPoint x="505" y="730" as="sourcePoint" />
          </mxGeometry>
        </mxCell>
        <mxCell id="QIxN9s75tHoBSEOhxKrL-104" style="edgeStyle=orthogonalEdgeStyle;rounded=0;orthogonalLoop=1;jettySize=auto;html=1;entryX=0.5;entryY=0;entryDx=0;entryDy=0;" edge="1" parent="QIxN9s75tHoBSEOhxKrL-12" source="QIxN9s75tHoBSEOhxKrL-6" target="QIxN9s75tHoBSEOhxKrL-23">
          <mxGeometry relative="1" as="geometry" />
        </mxCell>
        <mxCell id="QIxN9s75tHoBSEOhxKrL-6" value="API Gateway" style="ellipse;whiteSpace=wrap;html=1;labelBackgroundColor=#FF3333;" vertex="1" parent="QIxN9s75tHoBSEOhxKrL-12">
          <mxGeometry x="380" y="220" width="150" height="80" as="geometry" />
        </mxCell>
        <mxCell id="QIxN9s75tHoBSEOhxKrL-13" style="edgeStyle=orthogonalEdgeStyle;rounded=0;orthogonalLoop=1;jettySize=auto;html=1;entryX=0.5;entryY=0;entryDx=0;entryDy=0;" edge="1" parent="QIxN9s75tHoBSEOhxKrL-12" source="QIxN9s75tHoBSEOhxKrL-6" target="QIxN9s75tHoBSEOhxKrL-9">
          <mxGeometry relative="1" as="geometry" />
        </mxCell>
        <mxCell id="QIxN9s75tHoBSEOhxKrL-82" style="edgeStyle=orthogonalEdgeStyle;rounded=0;orthogonalLoop=1;jettySize=auto;html=1;entryX=0.547;entryY=0.025;entryDx=0;entryDy=0;entryPerimeter=0;" edge="1" parent="QIxN9s75tHoBSEOhxKrL-12" source="QIxN9s75tHoBSEOhxKrL-6" target="QIxN9s75tHoBSEOhxKrL-11">
          <mxGeometry relative="1" as="geometry" />
        </mxCell>
        <mxCell id="QIxN9s75tHoBSEOhxKrL-85" style="edgeStyle=orthogonalEdgeStyle;rounded=0;orthogonalLoop=1;jettySize=auto;html=1;" edge="1" parent="QIxN9s75tHoBSEOhxKrL-12" source="QIxN9s75tHoBSEOhxKrL-9" target="QIxN9s75tHoBSEOhxKrL-6">
          <mxGeometry relative="1" as="geometry" />
        </mxCell>
        <mxCell id="QIxN9s75tHoBSEOhxKrL-107" style="edgeStyle=orthogonalEdgeStyle;rounded=0;orthogonalLoop=1;jettySize=auto;html=1;entryX=0;entryY=0.5;entryDx=0;entryDy=0;" edge="1" parent="QIxN9s75tHoBSEOhxKrL-12" source="QIxN9s75tHoBSEOhxKrL-1" target="QIxN9s75tHoBSEOhxKrL-105">
          <mxGeometry relative="1" as="geometry" />
        </mxCell>
        <mxCell id="QIxN9s75tHoBSEOhxKrL-1" value="Front end&amp;nbsp; mS" style="ellipse;whiteSpace=wrap;html=1;" vertex="1" parent="QIxN9s75tHoBSEOhxKrL-12">
          <mxGeometry x="380" y="80" width="150" height="80" as="geometry" />
        </mxCell>
        <mxCell id="QIxN9s75tHoBSEOhxKrL-8" style="edgeStyle=orthogonalEdgeStyle;rounded=0;orthogonalLoop=1;jettySize=auto;html=1;" edge="1" parent="QIxN9s75tHoBSEOhxKrL-12" source="QIxN9s75tHoBSEOhxKrL-1" target="QIxN9s75tHoBSEOhxKrL-6">
          <mxGeometry relative="1" as="geometry" />
        </mxCell>
        <mxCell id="QIxN9s75tHoBSEOhxKrL-10" style="edgeStyle=orthogonalEdgeStyle;rounded=0;orthogonalLoop=1;jettySize=auto;html=1;entryX=0.5;entryY=1;entryDx=0;entryDy=0;" edge="1" parent="QIxN9s75tHoBSEOhxKrL-12" source="QIxN9s75tHoBSEOhxKrL-6" target="QIxN9s75tHoBSEOhxKrL-1">
          <mxGeometry relative="1" as="geometry" />
        </mxCell>
        <mxCell id="QIxN9s75tHoBSEOhxKrL-92" value="" style="edgeStyle=orthogonalEdgeStyle;rounded=0;orthogonalLoop=1;jettySize=auto;html=1;entryX=0.5;entryY=1;entryDx=0;entryDy=0;" edge="1" parent="QIxN9s75tHoBSEOhxKrL-12" source="QIxN9s75tHoBSEOhxKrL-11" target="QIxN9s75tHoBSEOhxKrL-9">
          <mxGeometry relative="1" as="geometry">
            <mxPoint x="220" y="290" as="sourcePoint" />
            <mxPoint x="-155" y="200" as="targetPoint" />
          </mxGeometry>
        </mxCell>
        <mxCell id="QIxN9s75tHoBSEOhxKrL-137" style="edgeStyle=orthogonalEdgeStyle;rounded=0;orthogonalLoop=1;jettySize=auto;html=1;entryX=1;entryY=0.5;entryDx=0;entryDy=0;" edge="1" parent="QIxN9s75tHoBSEOhxKrL-12" source="QIxN9s75tHoBSEOhxKrL-9" target="QIxN9s75tHoBSEOhxKrL-134">
          <mxGeometry relative="1" as="geometry" />
        </mxCell>
        <mxCell id="QIxN9s75tHoBSEOhxKrL-9" value="URL Shortner operation Service mS&amp;nbsp;" style="ellipse;whiteSpace=wrap;html=1;" vertex="1" parent="QIxN9s75tHoBSEOhxKrL-12">
          <mxGeometry x="390" y="360" width="150" height="80" as="geometry" />
        </mxCell>
        <mxCell id="QIxN9s75tHoBSEOhxKrL-126" style="edgeStyle=orthogonalEdgeStyle;rounded=0;orthogonalLoop=1;jettySize=auto;html=1;" edge="1" parent="QIxN9s75tHoBSEOhxKrL-12" source="QIxN9s75tHoBSEOhxKrL-23">
          <mxGeometry relative="1" as="geometry">
            <mxPoint x="910" y="790" as="targetPoint" />
            <Array as="points">
              <mxPoint x="145" y="645" />
              <mxPoint x="146" y="645" />
            </Array>
          </mxGeometry>
        </mxCell>
        <mxCell id="QIxN9s75tHoBSEOhxKrL-135" style="edgeStyle=orthogonalEdgeStyle;rounded=0;orthogonalLoop=1;jettySize=auto;html=1;entryX=0.5;entryY=0;entryDx=0;entryDy=0;" edge="1" parent="QIxN9s75tHoBSEOhxKrL-12" source="QIxN9s75tHoBSEOhxKrL-23" target="QIxN9s75tHoBSEOhxKrL-134">
          <mxGeometry relative="1" as="geometry" />
        </mxCell>
        <mxCell id="QIxN9s75tHoBSEOhxKrL-23" value="Management&amp;nbsp; mS" style="ellipse;whiteSpace=wrap;html=1;" vertex="1" parent="QIxN9s75tHoBSEOhxKrL-12">
          <mxGeometry x="70" y="350" width="150" height="80" as="geometry" />
        </mxCell>
        <mxCell id="QIxN9s75tHoBSEOhxKrL-97" style="edgeStyle=orthogonalEdgeStyle;rounded=0;orthogonalLoop=1;jettySize=auto;html=1;entryX=1;entryY=0.5;entryDx=0;entryDy=0;" edge="1" parent="QIxN9s75tHoBSEOhxKrL-12" source="QIxN9s75tHoBSEOhxKrL-11" target="QIxN9s75tHoBSEOhxKrL-6">
          <mxGeometry relative="1" as="geometry">
            <mxPoint x="1010" y="180" as="targetPoint" />
            <Array as="points">
              <mxPoint x="1020" y="390" />
              <mxPoint x="1020" y="266" />
              <mxPoint x="1011" y="266" />
              <mxPoint x="1011" y="260" />
            </Array>
          </mxGeometry>
        </mxCell>
        <mxCell id="QIxN9s75tHoBSEOhxKrL-101" style="edgeStyle=orthogonalEdgeStyle;rounded=0;orthogonalLoop=1;jettySize=auto;html=1;entryX=0;entryY=0.5;entryDx=0;entryDy=0;" edge="1" parent="QIxN9s75tHoBSEOhxKrL-12" source="QIxN9s75tHoBSEOhxKrL-98" target="QIxN9s75tHoBSEOhxKrL-6">
          <mxGeometry relative="1" as="geometry" />
        </mxCell>
        <mxCell id="QIxN9s75tHoBSEOhxKrL-98" value="" style="image;sketch=0;aspect=fixed;html=1;points=[];align=center;fontSize=12;image=img/lib/mscae/Azure_AD_Identity_Protection.svg;" vertex="1" parent="QIxN9s75tHoBSEOhxKrL-12">
          <mxGeometry x="80" y="90" width="50" height="50" as="geometry" />
        </mxCell>
        <mxCell id="QIxN9s75tHoBSEOhxKrL-99" style="edgeStyle=orthogonalEdgeStyle;rounded=0;orthogonalLoop=1;jettySize=auto;html=1;entryX=1.02;entryY=0.58;entryDx=0;entryDy=0;entryPerimeter=0;" edge="1" parent="QIxN9s75tHoBSEOhxKrL-12" source="QIxN9s75tHoBSEOhxKrL-6" target="QIxN9s75tHoBSEOhxKrL-98">
          <mxGeometry relative="1" as="geometry" />
        </mxCell>
        <mxCell id="QIxN9s75tHoBSEOhxKrL-103" value="Azure Active directory for authorization and authetication&amp;nbsp;" style="shape=callout;whiteSpace=wrap;html=1;perimeter=calloutPerimeter;" vertex="1" parent="QIxN9s75tHoBSEOhxKrL-12">
          <mxGeometry x="10" y="10" width="190" height="80" as="geometry" />
        </mxCell>
        <mxCell id="QIxN9s75tHoBSEOhxKrL-105" value="Ingress Router" style="rounded=0;whiteSpace=wrap;html=1;" vertex="1" parent="QIxN9s75tHoBSEOhxKrL-12">
          <mxGeometry x="680" y="85" width="120" height="60" as="geometry" />
        </mxCell>
        <mxCell id="QIxN9s75tHoBSEOhxKrL-116" style="edgeStyle=orthogonalEdgeStyle;rounded=0;orthogonalLoop=1;jettySize=auto;html=1;" edge="1" parent="QIxN9s75tHoBSEOhxKrL-12" source="QIxN9s75tHoBSEOhxKrL-105" target="QIxN9s75tHoBSEOhxKrL-1">
          <mxGeometry relative="1" as="geometry" />
        </mxCell>
        <mxCell id="QIxN9s75tHoBSEOhxKrL-132" value="" style="image;aspect=fixed;html=1;points=[];align=center;fontSize=12;image=img/lib/azure2/databases/Azure_Cosmos_DB.svg;" vertex="1" parent="QIxN9s75tHoBSEOhxKrL-12">
          <mxGeometry x="460" y="686" width="64" height="64" as="geometry" />
        </mxCell>
        <mxCell id="QIxN9s75tHoBSEOhxKrL-134" value="Kafka Producer/Consumer&amp;nbsp;" style="shape=hexagon;perimeter=hexagonPerimeter2;whiteSpace=wrap;html=1;fixedSize=1;" vertex="1" parent="QIxN9s75tHoBSEOhxKrL-12">
          <mxGeometry x="250" y="310" width="120" height="80" as="geometry" />
        </mxCell>
        <mxCell id="QIxN9s75tHoBSEOhxKrL-139" value="No SQL database&amp;nbsp;" style="shape=callout;whiteSpace=wrap;html=1;perimeter=calloutPerimeter;direction=east;" vertex="1" parent="QIxN9s75tHoBSEOhxKrL-12">
          <mxGeometry x="360" y="620" width="290" height="80" as="geometry" />
        </mxCell>
        <mxCell id="QIxN9s75tHoBSEOhxKrL-140" value="Postgres SQL database" style="shape=callout;whiteSpace=wrap;html=1;perimeter=calloutPerimeter;direction=west;" vertex="1" parent="QIxN9s75tHoBSEOhxKrL-12">
          <mxGeometry x="840" y="810" width="216" height="80" as="geometry" />
        </mxCell>
        <mxCell id="QIxN9s75tHoBSEOhxKrL-108" style="edgeStyle=orthogonalEdgeStyle;rounded=0;orthogonalLoop=1;jettySize=auto;html=1;" edge="1" parent="1" source="QIxN9s75tHoBSEOhxKrL-105" target="QIxN9s75tHoBSEOhxKrL-2">
          <mxGeometry relative="1" as="geometry" />
        </mxCell>
        <mxCell id="QIxN9s75tHoBSEOhxKrL-138" value="URL Shortener System Design" style="text;html=1;align=center;verticalAlign=middle;whiteSpace=wrap;rounded=0;fontSize=24;fontStyle=1;fontColor=#FF3333;" vertex="1" parent="1">
          <mxGeometry x="170" y="-430" width="350" height="30" as="geometry" />
        </mxCell>
      </root>
    </mxGraphModel>
  </diagram>
</mxfile>
